<svg width="375" height="44" viewBox="0 0 375 44" fill="none" xmlns="http://www.w3.org/2000/svg">
<rect opacity="0.35" x="335.833" y="17.8333" width="21" height="10.3333" rx="2.16667" stroke="white"/>
<path opacity="0.4" d="M358.333 20.9999V24.9999C359.138 24.6612 359.661 23.8731 359.661 22.9999C359.661 22.1268 359.138 21.3387 358.333 20.9999" fill="white"/>
<rect x="337.333" y="19.3333" width="18" height="7.33333" rx="1.33333" fill="white"/>
<path fill-rule="evenodd" clip-rule="evenodd" d="M322.667 19.615C324.892 19.6151 327.031 20.4693 328.644 22.0008C328.765 22.1191 328.959 22.1176 329.079 21.9975L330.239 20.8272C330.3 20.7663 330.334 20.6837 330.333 20.5979C330.333 20.5121 330.298 20.4299 330.237 20.3697C326.005 16.3175 319.329 16.3175 315.097 20.3697C315.035 20.4299 315.001 20.512 315 20.5978C314.999 20.6837 315.033 20.7662 315.094 20.8272L316.255 21.9975C316.374 22.1178 316.568 22.1193 316.69 22.0008C318.302 20.4692 320.442 19.615 322.667 19.615ZM322.667 23.4226C323.889 23.4225 325.068 23.8765 325.974 24.6962C326.097 24.8126 326.29 24.8101 326.409 24.6906L327.569 23.5202C327.63 23.4588 327.663 23.3756 327.663 23.289C327.662 23.2025 327.626 23.1199 327.564 23.0598C324.805 20.4954 320.532 20.4954 317.773 23.0598C317.71 23.1199 317.675 23.2025 317.674 23.2891C317.673 23.3757 317.707 23.4589 317.768 23.5202L318.927 24.6906C319.047 24.8101 319.24 24.8126 319.362 24.6962C320.268 23.877 321.446 23.4231 322.667 23.4226ZM324.989 25.9845C324.991 26.0712 324.957 26.1549 324.895 26.2157L322.89 28.2377C322.831 28.2971 322.751 28.3306 322.667 28.3306C322.583 28.3306 322.503 28.2971 322.445 28.2377L320.439 26.2157C320.377 26.1549 320.343 26.0712 320.345 25.9844C320.347 25.8976 320.384 25.8154 320.449 25.7573C321.729 24.675 323.605 24.675 324.886 25.7573C324.95 25.8155 324.988 25.8977 324.989 25.9845Z" fill="white"/>
<path fill-rule="evenodd" clip-rule="evenodd" d="M309 17.6667H308C307.448 17.6667 307 18.1145 307 18.6667V27.3334C307 27.8857 307.448 28.3334 308 28.3334H309C309.552 28.3334 310 27.8857 310 27.3334V18.6667C310 18.1145 309.552 17.6667 309 17.6667ZM303.333 20H304.333C304.886 20 305.333 20.4477 305.333 21V27.3333C305.333 27.8856 304.886 28.3333 304.333 28.3333H303.333C302.781 28.3333 302.333 27.8856 302.333 27.3333V21C302.333 20.4477 302.781 20 303.333 20ZM299.667 22.3335H298.667C298.114 22.3335 297.667 22.7812 297.667 23.3335V27.3335C297.667 27.8858 298.114 28.3335 298.667 28.3335H299.667C300.219 28.3335 300.667 27.8858 300.667 27.3335V23.3335C300.667 22.7812 300.219 22.3335 299.667 22.3335ZM295 24.3335H294C293.448 24.3335 293 24.7812 293 25.3335V27.3335C293 27.8858 293.448 28.3335 294 28.3335H295C295.552 28.3335 296 27.8858 296 27.3335V25.3335C296 24.7812 295.552 24.3335 295 24.3335Z" fill="white"/>
<path d="M37.1341 28.2563C39.8221 28.2563 41.4187 26.1543 41.4187 22.5874C41.4187 19.0864 39.7195 17.1675 37.1927 17.1675C34.8929 17.1675 33.2669 18.7129 33.2669 20.8735C33.2669 22.9023 34.7317 24.3818 36.7459 24.3818C37.9837 24.3818 38.9871 23.8105 39.4852 22.8071H39.6097C39.5877 25.29 38.7015 26.7109 37.1561 26.7109C36.2479 26.7109 35.5228 26.2129 35.2957 25.4072H33.4134C33.721 27.1284 35.2005 28.2563 37.1341 28.2563ZM37.2 22.9243C35.9695 22.9243 35.1199 22.0601 35.1199 20.8149C35.1199 19.6211 36.0135 18.7056 37.2073 18.7056C38.4012 18.7056 39.2947 19.6357 39.2947 20.8516C39.2947 22.0527 38.4231 22.9243 37.2 22.9243ZM44.4366 21.1592C45.1324 21.1592 45.6085 20.6758 45.6085 20.0239C45.6085 19.3721 45.1324 18.8887 44.4366 18.8887C43.7481 18.8887 43.2647 19.3721 43.2647 20.0239C43.2647 20.6758 43.7481 21.1592 44.4366 21.1592ZM44.4366 26.5352C45.1324 26.5352 45.6085 26.0444 45.6085 25.3999C45.6085 24.748 45.1324 24.2646 44.4366 24.2646C43.7481 24.2646 43.2647 24.748 43.2647 25.3999C43.2647 26.0444 43.7481 26.5352 44.4366 26.5352ZM52.6107 28H54.4198V25.9712H55.848V24.4111H54.4198V17.4312H51.7538C50.3183 19.6138 48.8168 22.0454 47.4472 24.4258V25.9712H52.6107V28ZM49.1977 24.3452C50.2304 22.5508 51.4535 20.5952 52.5375 18.9399H52.64V24.4551H49.1977V24.3452ZM59.8767 28H61.7663V17.4312H59.884L57.1228 19.3721V21.1519L59.7521 19.2915H59.8767V28Z" fill="white"/>
</svg>
